<svg id="visual" viewBox="0 0 1350 250" width="1350" height="250" xmlns="http://www.w3.org/2000/svg" xmlns:xlink="http://www.w3.org/1999/xlink" version="1.1"><path d="M0 192L56.3 187.2C112.7 182.3 225.3 172.7 337.8 171.7C450.3 170.7 562.7 178.3 675.2 183.3C787.7 188.3 900.3 190.7 1012.8 187C1125.3 183.3 1237.7 173.7 1293.8 168.8L1350 164L1350 251L1293.8 251C1237.7 251 1125.3 251 1012.8 251C900.3 251 787.7 251 675.2 251C562.7 251 450.3 251 337.8 251C225.3 251 112.7 251 56.3 251L0 251Z" fill="#ff6037" stroke-linecap="round" stroke-linejoin="miter"></path></svg>